HIERARCHY
ROOT joint_Root
{
	OFFSET 0.0 0.0 0.0
	CHANNELS 6 Xposition Yposition Zposition Zrotation Xrotation Yrotation 
	JOINT Hips
	{
		OFFSET -17.1583 93.1646 452.98
		CHANNELS 6 Xposition Yposition Zposition Zrotation Xrotation Yrotation 
		JOINT Spine
		{
			OFFSET 15.7357 0.0 0.0
			CHANNELS 6 Xposition Yposition Zposition Zrotation Xrotation Yrotation 
			JOINT Chest
			{
				OFFSET 8.98455 -0.406207 0.0
				CHANNELS 6 Xposition Yposition Zposition Zrotation Xrotation Yrotation 
				JOINT Neck
				{
					OFFSET 16.3773 0.0 0.0
					CHANNELS 6 Xposition Yposition Zposition Zrotation Xrotation Yrotation 
					JOINT Head
					{
						OFFSET 6.45672 0.0 0.0
						CHANNELS 6 Xposition Yposition Zposition Zrotation Xrotation Yrotation 
						End Site
						{
							OFFSET 0.0 0.0 0.0
						}
					}
				}
				JOINT Shoulder_L
				{
					OFFSET 12.9942 -0.242716 4.98039
					CHANNELS 6 Xposition Yposition Zposition Zrotation Xrotation Yrotation 
					JOINT UpperArm_L
					{
						OFFSET 5.34809 0.0 0.0
						CHANNELS 6 Xposition Yposition Zposition Zrotation Xrotation Yrotation 
						JOINT LowerArm_L
						{
							OFFSET 24.3286 1.87007e-05 0.0
							CHANNELS 6 Xposition Yposition Zposition Zrotation Xrotation Yrotation 
							JOINT Hand_L
							{
								OFFSET 22.2916 0.0 0.0
								CHANNELS 6 Xposition Yposition Zposition Zrotation Xrotation Yrotation 
								End Site
								{
									OFFSET 0.0 0.0 0.0
								}
							}
						}
					}
				}
				JOINT Shoulder_R
				{
					OFFSET 12.9945 -0.242716 -4.98039
					CHANNELS 6 Xposition Yposition Zposition Zrotation Xrotation Yrotation 
					JOINT UpperArm_R
					{
						OFFSET -5.34813 0.0 0.0
						CHANNELS 6 Xposition Yposition Zposition Zrotation Xrotation Yrotation 
						JOINT LowerArm_R
						{
							OFFSET -24.3289 0.000322201 0.0
							CHANNELS 6 Xposition Yposition Zposition Zrotation Xrotation Yrotation 
							JOINT Hand_R
							{
								OFFSET -22.2915 -0.000108084 0.0
								CHANNELS 6 Xposition Yposition Zposition Zrotation Xrotation Yrotation 
								End Site
								{
									OFFSET 0.0 0.0 0.0
								}
							}
						}
					}
				}
			}
		}
		JOINT UpperLeg_L
		{
			OFFSET -2.19248 -6.46944 0.0
			CHANNELS 6 Xposition Yposition Zposition Zrotation Xrotation Yrotation 
			JOINT LowerLeg_L
			{
				OFFSET 39.0811 0.0 -1.23785e-05
				CHANNELS 6 Xposition Yposition Zposition Zrotation Xrotation Yrotation 
				JOINT Foot_L
				{
					OFFSET 40.9854 0.0 -1.26872e-05
					CHANNELS 6 Xposition Yposition Zposition Zrotation Xrotation Yrotation 
					JOINT Toes_L
					{
						OFFSET 11.7543 0.0 0.0
						CHANNELS 6 Xposition Yposition Zposition Zrotation Xrotation Yrotation 
						End Site
						{
							OFFSET 0.0 0.0 0.0
						}
					}
				}
			}
		}
		JOINT UpperLeg_R
		{
			OFFSET -2.19251 6.46944 0.0
			CHANNELS 6 Xposition Yposition Zposition Zrotation Xrotation Yrotation 
			JOINT LowerLeg_R
			{
				OFFSET -39.0811 -0.00228153 -0.0401928
				CHANNELS 6 Xposition Yposition Zposition Zrotation Xrotation Yrotation 
				JOINT Foot_R
				{
					OFFSET -40.9854 0.0 0.0
					CHANNELS 6 Xposition Yposition Zposition Zrotation Xrotation Yrotation 
					JOINT Toes_R
					{
						OFFSET -11.7543 0.0 0.0
						CHANNELS 6 Xposition Yposition Zposition Zrotation Xrotation Yrotation 
						End Site
						{
							OFFSET 0.0 0.0 0.0
						}
					}
				}
			}
		}
	}
}
MOTION
Frames:	6
Frame Time:	0.0333333
0.000000 0.000000 0.000000 0.000000 0.000000 -0.000000 -2.647490 93.257900 -2.526320 88.316600 2.675660 1.541700 15.735700 0.000005 -0.000001 87.809700 87.574100 -86.861900 8.984550 -0.406207 -0.000000 -2.914840 -0.273670 1.888870 16.377300 -0.000001 -0.000001 -2.152750 0.153215 -1.381920 6.456720 -0.000001 -0.000000 4.191900 -0.689193 1.922090 12.994200 -0.242716 4.980390 -92.316800 8.419860 -74.554600 5.348090 -0.000007 -0.000001 -67.822000 22.225300 -10.378700 24.328600 0.000019 0.000005 5.724330 32.845600 -10.485700 22.291600 -0.000001 0.000005 -20.713400 5.333870 -1.043240 12.994500 -0.242716 -4.980390 88.760900 4.667940 -75.115000 -5.348130 -0.000001 -0.000004 -63.605800 32.433600 -12.530600 -24.328900 0.000322 -0.000009 1.127170 3.433210 -18.205800 -22.291500 -0.000108 -0.000004 -24.104500 4.957620 8.234680 -2.192480 -6.469440 -0.000000 -171.929000 -4.165920 -1.787200 39.081100 -0.000007 -0.000012 0.005438 -0.021764 14.029500 40.985400 -0.000006 -0.000013 -3.059250 14.134200 -66.684500 11.754300 -0.000000 0.000003 0.000226 0.163730 -9.936220 -2.192510 6.469440 -0.000001 178.896000 7.167260 179.114000 -39.081100 -0.002282 -0.040193 0.026301 -0.087955 14.636200 -40.985400 0.000008 0.000006 -6.055780 1.785390 -68.209800 -11.754300 -0.000006 -0.000006 -0.007977 0.255510 -6.196530
0.000000 0.000000 0.000000 0.000000 0.000000 -0.000000 -2.686710 93.308400 -2.392070 88.329800 2.778040 1.091730 15.735700 0.000005 -0.000001 85.800100 87.732700 -84.896300 8.984550 -0.406207 -0.000000 -3.239770 -0.418704 1.796150 16.377300 -0.000001 -0.000001 -2.666700 -0.077399 -0.916056 6.456720 -0.000001 -0.000000 3.044090 -0.376797 1.962620 12.994200 -0.242716 4.980390 -92.054400 7.636840 -74.894600 5.348090 -0.000007 -0.000001 -63.920700 16.517300 -17.859400 24.328600 0.000019 0.000005 1.638710 41.847900 -2.462940 22.291600 -0.000001 0.000005 -32.205800 5.355470 -1.428810 12.994500 -0.242716 -4.980390 89.076700 3.325860 -74.473200 -5.348130 -0.000001 -0.000004 -59.315200 29.318300 -18.821500 -24.328900 0.000322 -0.000009 0.733362 2.093710 -19.334600 -22.291500 -0.000108 -0.000004 -28.767400 4.892490 9.532380 -2.192480 -6.469440 -0.000000 -171.919000 -4.346770 -1.798510 39.081100 -0.000007 -0.000012 0.006990 -0.029597 13.289300 40.985400 -0.000006 -0.000013 -3.151530 14.332300 -66.419200 11.754300 -0.000000 0.000003 0.000102 0.165887 -9.848610 -2.192510 6.469440 -0.000001 178.871000 7.619180 179.045000 -39.081100 -0.002282 -0.040193 0.020937 -0.070529 14.015400 -40.985400 0.000008 0.000006 -6.415360 2.133410 -67.732200 -11.754300 -0.000006 -0.000006 -0.008555 0.260173 -6.006060
0.000000 0.000000 0.000000 0.000000 0.000000 -0.000000 -2.746430 93.417100 -2.266840 88.287700 2.677040 -0.056296 15.735700 0.000005 -0.000001 81.937700 88.319200 -81.003100 8.984550 -0.406207 -0.000000 -4.432470 -0.570511 1.848260 16.377300 -0.000001 -0.000001 -3.072300 -0.064290 -0.766605 6.456720 -0.000001 -0.000000 2.371660 -0.115281 1.915950 12.994200 -0.242716 4.980390 -91.691800 6.183680 -74.664900 5.348090 -0.000007 -0.000001 -60.654200 7.108220 -24.167800 24.328600 0.000019 0.000005 0.312644 49.389400 -0.411366 22.291600 -0.000001 0.000005 -37.767900 5.214720 2.345770 12.994500 -0.242716 -4.980390 89.442500 1.907880 -73.706200 -5.348130 -0.000001 -0.000004 -54.175600 24.006800 -25.431500 -24.328900 0.000322 -0.000009 0.816763 2.011950 -22.132000 -22.291500 -0.000108 -0.000004 -28.656200 4.900900 9.366250 -2.192480 -6.469440 -0.000000 -171.880000 -5.237420 -2.117140 39.081100 -0.000007 -0.000012 0.009555 -0.045341 11.901100 40.985400 -0.000006 -0.000013 -3.303360 14.876500 -66.066300 11.754300 -0.000000 0.000003 -0.000218 0.171212 -9.632360 -2.192510 6.469440 -0.000001 178.973000 8.174680 178.580000 -39.081100 -0.002282 -0.040193 0.014728 -0.050623 12.684600 -40.985400 0.000008 0.000006 -7.006090 2.706100 -66.808400 -11.754300 -0.000006 -0.000006 -0.009197 0.265205 -5.800400
0.000000 0.000000 0.000000 0.000000 0.000000 -0.000000 -2.785090 93.544400 -2.131600 88.149900 2.267330 -1.180170 15.735700 0.000005 -0.000001 77.691700 88.849000 -76.618400 8.984550 -0.406207 -0.000000 -5.510430 -0.614372 2.119240 16.377300 -0.000001 -0.000001 -3.839290 0.197805 -0.743693 6.456720 -0.000001 -0.000000 1.456610 0.197748 1.493040 12.994200 -0.242716 4.980390 -91.363900 4.834200 -74.223000 5.348090 -0.000007 -0.000001 -56.032200 -1.450370 -30.747900 24.328600 0.000019 0.000005 1.294530 47.895600 -1.745710 22.291600 -0.000001 0.000005 -31.402300 5.197370 2.842110 12.994500 -0.242716 -4.980390 89.800600 0.671072 -73.451400 -5.348130 -0.000001 -0.000004 -47.796000 17.018400 -32.506300 -24.328900 0.000322 -0.000009 0.146663 0.321213 -24.786900 -22.291500 -0.000108 -0.000004 -23.633200 4.992830 7.521690 -2.192480 -6.469440 -0.000000 -171.603000 -5.756940 -2.424470 39.081100 -0.000007 -0.000012 -0.007550 0.041110 10.405400 40.985400 -0.000006 -0.000013 -5.329700 15.039700 -64.466400 11.754300 -0.000000 0.000003 -0.000268 0.172024 -9.599390 -2.192510 6.469440 -0.000001 179.142000 8.267930 178.412000 -39.081100 -0.002282 -0.040193 0.009856 -0.034325 10.751900 -40.985400 0.000008 0.000006 -8.027770 3.224360 -65.413600 -11.754300 -0.000006 -0.000006 -0.009573 0.268084 -5.682700
0.000000 0.000000 0.000000 0.000000 0.000000 -0.000000 -2.818660 93.696600 -2.014380 87.974400 1.846070 -2.203610 15.735700 0.000005 -0.000001 76.203600 89.254900 -74.992100 8.984550 -0.406207 -0.000000 -6.312480 -0.503515 2.398620 16.377300 -0.000001 -0.000001 -5.292070 0.437903 -0.606189 6.456720 -0.000001 -0.000000 0.550114 0.476899 1.211090 12.994200 -0.242716 4.980390 -90.903900 3.160860 -74.032000 5.348090 -0.000007 -0.000001 -50.212400 -8.622530 -36.970400 24.328600 0.000019 0.000005 2.398560 36.466700 -4.039090 22.291600 -0.000001 0.000005 -19.307300 5.285770 0.583397 12.994500 -0.242716 -4.980390 90.223700 -0.748598 -73.360500 -5.348130 -0.000001 -0.000004 -41.886400 7.991420 -39.533300 -24.328900 0.000322 -0.000009 -0.869281 -1.840230 -25.263500 -22.291500 -0.000108 -0.000004 -17.291100 5.125160 4.578770 -2.192480 -6.469440 -0.000000 -171.292000 -5.536220 -2.295330 39.081100 -0.000007 -0.000012 -0.014591 0.100801 8.236010 40.985400 -0.000006 -0.000013 -7.951570 14.416900 -62.514000 11.754300 -0.000000 0.000003 -0.000448 0.174852 -9.484470 -2.192510 6.469440 -0.000001 179.426000 8.741610 178.164000 -39.081100 -0.002282 -0.040193 0.010157 -0.042383 9.137110 -40.985400 0.000008 0.000006 -8.053950 3.939250 -64.191000 -11.754300 -0.000006 -0.000006 -0.010004 0.271337 -5.549670
0.000000 0.000000 0.000000 0.000000 0.000000 -0.000000 -2.830460 93.866500 -1.935830 87.766200 1.593970 -3.412530 15.735700 0.000005 -0.000001 81.671900 89.642500 -80.377900 8.984550 -0.406207 -0.000000 -7.054180 -0.270555 2.575680 16.377300 -0.000001 -0.000001 -7.309070 0.423243 -0.195639 6.456720 -0.000001 -0.000000 -0.477483 0.650544 1.317540 12.994200 -0.242716 4.980390 -90.343800 1.168670 -73.596900 5.348090 -0.000007 -0.000001 -44.938900 -16.168600 -42.845600 24.328600 0.000019 0.000005 3.771380 27.468400 -8.140770 22.291600 -0.000001 0.000005 -7.764370 5.292140 0.219013 12.994500 -0.242716 -4.980390 90.814400 -2.745610 -73.472300 -5.348130 -0.000001 -0.000004 -38.056100 -2.995960 -45.168300 -24.328900 0.000322 -0.000009 -1.452190 -3.252350 -24.064600 -22.291500 -0.000108 -0.000004 -10.532800 5.201000 2.727500 -2.192480 -6.469440 -0.000000 -170.951000 -5.692170 -1.527850 39.081100 -0.000007 -0.000012 -0.004065 0.053799 4.320410 40.985400 -0.000006 -0.000013 -10.744100 14.098600 -59.605000 11.754300 -0.000000 0.000003 -0.000465 0.175112 -9.473910 -2.192510 6.469440 -0.000001 179.774000 9.659490 177.832000 -39.081100 -0.002282 -0.040193 0.010702 -0.057723 7.264680 -40.985400 0.000008 0.000006 -8.333900 4.946200 -62.632300 -11.754300 -0.000006 -0.000006 -0.009849 0.270170 -5.597400
